<?xml version="1.0" encoding="utf-8"?>
<!-- Generator: Adobe Illustrator 23.0.0, SVG Export Plug-In . SVG Version: 6.00 Build 0)  -->
<svg version="1.1" id="Capa_1" xmlns="http://www.w3.org/2000/svg" xmlns:xlink="http://www.w3.org/1999/xlink" x="0px" y="0px"
	 viewBox="0 0 361.5 40" style="enable-background:new 0 0 361.5 40;" xml:space="preserve">
<style type="text/css">
	.st0{fill:#FFFFFF;}
</style>
<path class="st0" d="M361.5,28.5c0-5.4-2.8-8.2-7.8-11.5l-3.6-2.3c-2.3-1.4-3.2-2.5-3.2-4.3c0-2.3,1.4-3.1,4.1-3.1
	c1,0,1.4,0,3.3,0.1l0.5,2.4h6V1.4c-3.5-0.9-7.1-1.4-10.7-1.4C341.2,0,337,3.5,337,10.4c0,5.4,2.8,8,7,10.9l4.1,2.8
	c2.4,1.7,3.3,2.7,3.3,4.7c0,2.6-1.1,3.8-4.1,3.8c-1,0-1.5,0-3.1,0l-0.5-2.5h-6v8.7c3.8,0.9,7.6,1.3,11.5,1.3
	C356.9,40,361.5,36.1,361.5,28.5 M322.5,22.9h-5l1.5-9.5c0.4-2.1,0.6-4.3,0.8-6.2h0.2c0.2,1.9,0.5,4.2,0.8,6.2L322.5,22.9
	L322.5,22.9z M317.5,39.3v-6.6l-1.4-0.2l0.4-2.4h6.7l0.4,2.4l-1.4,0.2v6.6h13.5v-6.6l-2-0.2l-6.3-31.7h-18.8v6.6l2,0.3L306,32.5
	l-2,0.2v6.6L317.5,39.3z M302.2,39.3v-6.6l-1.9-0.2V7.6l1.9-0.2V0.8h-13.8v6.6l1.9,0.2v24.9l-1.9,0.2v6.6L302.2,39.3z M286.5,38.9
	v-9.4h-6L280,32c-0.5,0-1,0-1.5,0c-3.7,0-5.5-1.1-5.5-9.3v-5.5c0-8.1,1.9-9.3,5.5-9.3c0.5,0,1,0.1,1.5,0.1l0.5,2.4h6V1.1
	c-3-0.7-6.1-1.1-9.2-1.1C268,0,263,3.3,263,17.3v5.5c0,13.9,5,17.2,14.3,17.2C280.4,40,283.5,39.6,286.5,38.9 M249.6,0.8v6.6
	l1.9,0.2v8.9c0,1.9,0.1,4.8,0.3,6.7h-0.1c-0.5-1.7-1.3-3.5-2-5.3l-7.3-17h-11.4v6.5l1.8,0.2v24.9l-1.8,0.2v6.6h12.6v-6.6l-1.9-0.2
	v-9.7c0-1.9-0.1-4.2-0.3-6.1h0.1c0.6,1.7,1.4,3.6,1.9,5l7.2,17.6h9.9V7.6l1.9-0.2V0.8H249.6z M229,39.3v-6.6l-1.9-0.2V7.6l1.9-0.2
	V0.8h-13.8v6.6l1.9,0.2v24.9l-1.9,0.2v6.6H229z M199.8,0.8v6.6l1.7,0.2l-2.8,17.6c-0.5,2.9-0.7,5.4-0.9,7.7h-0.1
	c-0.3-2.2-0.5-4.9-0.9-7.7l-2.8-17.6l1.7-0.2V0.8h-13.7v6.6l2.1,0.3l6,31.7h15.4l6.1-31.7l2.1-0.3V0.8H199.8z M171.9,22.5
	c0,7.4-1,9.6-4.2,9.6s-4.1-2.2-4.1-9.6v-4.9c0-7.3,0.9-9.6,4.1-9.6s4.2,2.3,4.2,9.6V22.5z M181.8,22.5v-4.9
	c0-13.4-5.6-17.6-14.1-17.6s-14,4.1-14,17.6v4.9c0,13.3,5.5,17.5,14,17.5S181.8,35.8,181.8,22.5 M141.6,13.3c0,3.6-1,5.3-4.8,5.3
	h-2.1V7.9c0.8-0.1,1.2-0.1,2-0.1c3.8,0,4.9,1.1,4.9,5L141.6,13.3L141.6,13.3z M136.6,39.3v-6.6l-1.9-0.2v-6.8h3.1l5.3,13.6h9.6v-6.6
	l-2.5-0.3l-3.6-8.8c2.9-2,4.5-5.1,4.5-10.4v-0.4c0-10.5-7-12.5-15.2-12.5c-4.6,0-8.9,0.2-12.8,0.5v6.6l1.9,0.2v24.9l-1.9,0.2v6.6
	L136.6,39.3z M112.5,13.5c0,3.7-1.3,5.1-4.7,5.1c-0.8,0-1.6,0-2.2,0V7.9c0.7-0.1,1.4-0.1,2.1-0.1c3.5,0,4.8,1,4.8,5L112.5,13.5
	L112.5,13.5z M107.9,39.3v-6.6l-2.4-0.2v-6.3h2.5c7.3,0,14.2-2.2,14.2-12.8v-0.6c0-10.6-6.8-12.5-15.2-12.5c-4.6,0-8.8,0.1-13,0.5
	v6.6l1.9,0.2v24.9L94,32.7v6.6L107.9,39.3z M81.6,28.5c0-5.4-2.8-8.2-7.8-11.5l-3.6-2.3c-2.3-1.5-3.2-2.5-3.2-4.2
	c0-2.3,1.3-3.1,4.2-3.1c1,0,1.4,0,3.3,0.1L75,9.8h6V1.4C77.5,0.5,73.9,0,70.3,0c-8.9,0-13.1,3.5-13.1,10.4c0,5.4,2.8,8,7,10.9
	l4.1,2.8c2.4,1.7,3.3,2.7,3.3,4.7c0,2.6-1.1,3.8-4.1,3.8c-1,0-1.5,0-3.1,0l-0.5-2.5h-6v8.7c3.7,0.9,7.6,1.3,11.5,1.3
	C77,40,81.6,36.1,81.6,28.5 M42.6,22.9h-5l1.6-9.5c0.4-2.1,0.6-4.3,0.8-6.2h0.2c0.2,1.9,0.5,4.2,0.8,6.2L42.6,22.9L42.6,22.9z
	 M37.7,39.3v-6.6l-1.3-0.2l0.4-2.4h6.7l0.4,2.4l-1.3,0.2v6.6H56v-6.6l-2-0.2L47.7,0.8H29v6.6l2,0.3l-4.8,24.9l-2,0.2v6.6H37.7z
	 M22.5,39.3V29.2h-6L16,31.6h-4.3v-24l1.9-0.2V0.8H0v6.6l1.7,0.2v24.9L0,32.7v6.6H22.5z"/>
</svg>
